<?xml version="1.0" encoding="UTF-8" standalone="no"?>
<!-- Created with Inkscape (http://www.inkscape.org/) -->

<svg
   width="200mm"
   height="201.39313mm"
   viewBox="0 0 200 201.39312"
   version="1.1"
   id="svg5414"
   inkscape:version="1.2.2 (b0a8486541, 2022-12-01)"
   sodipodi:docname="FOSDEM_logo.svg"
   xmlns:inkscape="http://www.inkscape.org/namespaces/inkscape"
   xmlns:sodipodi="http://sodipodi.sourceforge.net/DTD/sodipodi-0.dtd"
   xmlns="http://www.w3.org/2000/svg"
   xmlns:svg="http://www.w3.org/2000/svg"
   xmlns:rdf="http://www.w3.org/1999/02/22-rdf-syntax-ns#"
   xmlns:cc="http://creativecommons.org/ns#"
   xmlns:dc="http://purl.org/dc/elements/1.1/">
  <defs
     id="defs5408" />
  <sodipodi:namedview
     id="base"
     pagecolor="#ffffff"
     bordercolor="#666666"
     borderopacity="1.0"
     inkscape:pageopacity="0.0"
     inkscape:pageshadow="2"
     inkscape:zoom="0.7"
     inkscape:cx="448.57143"
     inkscape:cy="437.85714"
     inkscape:document-units="mm"
     inkscape:current-layer="g5393"
     showgrid="false"
     fit-margin-top="0"
     fit-margin-left="0"
     fit-margin-right="0"
     fit-margin-bottom="0"
     inkscape:window-width="1856"
     inkscape:window-height="1056"
     inkscape:window-x="64"
     inkscape:window-y="-4"
     inkscape:window-maximized="1"
     inkscape:pagecheckerboard="0"
     inkscape:showpageshadow="2"
     inkscape:deskcolor="#d1d1d1" />
  <metadata
     id="metadata5411">
    <rdf:RDF>
      <cc:Work
         rdf:about="">
        <dc:format>image/svg+xml</dc:format>
        <dc:type
           rdf:resource="http://purl.org/dc/dcmitype/StillImage" />
      </cc:Work>
    </rdf:RDF>
  </metadata>
  <g
     inkscape:label="Layer 1"
     inkscape:groupmode="layer"
     id="layer1"
     transform="translate(122.23205,103.82981)">
    <g
       id="g5393"
       transform="matrix(0.6696055,0,0,0.6696055,-584.38731,-472.20097)">
      <g
         id="g547"
         transform="matrix(5.2079144,0,0,5.2079144,-2954.8227,-3049.6073)">
        <path
           id="path53"
           style="fill:#ac1d94;fill-opacity:1;fill-rule:nonzero;stroke:none;stroke-width:0.526844"
           d="m 728.5334,735.10636 c -8.21982,0 -15.06879,-6.68249 -15.06879,-15.0256 0,-8.30201 6.84897,-15.10778 15.06879,-15.10778 8.34311,0 15.15099,6.80577 15.15099,15.10778 0,8.34311 -6.80788,15.0256 -15.15099,15.0256 z m 23.47513,-15.05616 -0.11696,-2.33813 c 1.81287,-0.77604 3.5994,-1.69591 5.35906,-2.7575 -0.14436,-1.10111 -0.5005,-2.16323 -0.75971,-3.24168 -2.07208,-0.28186 -4.16945,-0.37458 -6.16777,-0.31874 -0.26553,-0.73284 -0.65434,-1.41405 -0.9794,-2.12581 -0.35193,-0.69596 -0.79448,-1.34187 -1.18961,-2.01676 1.26548,-1.54576 2.39556,-3.17793 3.46136,-4.94127 -0.6359,-0.90986 -1.44671,-1.67537 -2.17745,-2.50673 -1.96091,0.71598 -3.86071,1.60951 -5.60351,2.58681 -0.58058,-0.52263 -1.23703,-0.95306 -1.85449,-1.43249 -0.64012,-0.44413 -1.32501,-0.82293 -1.98778,-1.2344 0.40092,-1.95143 0.65012,-3.9271 0.77551,-5.98284 -0.98994,-0.51051 -2.06628,-0.81503 -3.10101,-1.21438 -1.40562,1.54576 -2.67373,3.22324 -3.76219,4.89807 -0.75339,-0.20178 -1.53944,-0.26131 -2.30494,-0.39724 -0.77394,-0.12328 -1.55788,-0.10273 -2.33603,-0.16016 -0.55319,-1.96144 -1.25125,-3.77852 -2.09052,-5.66147 -1.10742,0.0227 -2.20642,0.19546 -3.30331,0.37038 -0.53475,1.98146 -0.87878,4.07039 -1.06001,6.07925 -0.76551,0.16438 -1.49571,0.44255 -2.22855,0.71598 -0.74496,0.23866 -1.43829,0.60113 -2.14215,0.93831 -1.39772,-1.46515 -2.88763,-2.79859 -4.49504,-4.04142 -0.96728,0.54897 -1.8724,1.18698 -2.74749,1.8703 0.4552,2.00885 1.11586,4.00085 1.89348,5.86957 -0.59691,0.5063 -1.11744,1.08846 -1.63796,1.67115 -0.5495,0.5574 -0.99205,1.20173 -1.46357,1.82551 -1.91771,-0.65276 -3.84807,-1.14009 -5.85271,-1.50045 -0.60482,0.93252 -1.10532,1.92193 -1.57,2.93242 1.32923,1.56841 2.84812,3.03356 4.39968,4.32381 -0.29609,0.72441 -0.48365,1.48412 -0.67278,2.24119 -0.22444,0.74917 -0.32507,1.52732 -0.44045,2.29915 -1.9941,0.31874 -3.96186,0.78394 -5.88168,1.3993 -0.0743,1.10532 -0.10695,2.21011 -0.0184,3.31543 1.93668,0.76761 3.88126,1.36452 5.90012,1.78442 0.11538,0.7713 0.21601,1.54734 0.44045,2.29862 0.18913,0.75708 0.37669,1.51678 0.67278,2.2412 -1.57211,1.1875 -3.16897,2.54571 -4.56458,3.97609 0.48575,0.99784 0.9283,2.02097 1.53522,2.95085 2.09105,-0.23234 4.06882,-0.59691 6.05239,-1.17064 0.47152,0.62114 0.91407,1.26969 1.46357,1.82498 0.52052,0.58269 1.04105,1.16486 1.63796,1.67115 -0.84348,1.78442 -1.62163,3.7211 -2.2001,5.63671 0.88931,0.66488 1.75755,1.35662 2.72484,1.90401 1.74122,-1.16906 3.33229,-2.4161 4.82431,-3.84438 0.70386,0.33929 1.39719,0.69965 2.14215,0.94042 0.73284,0.27396 1.46304,0.5516 2.22855,0.71809 0.0848,1.96776 0.29661,4.05038 0.68121,6.0155 1.09689,0.15437 2.19009,0.39303 3.29699,0.40989 0.99415,-1.87293 1.81919,-3.68001 2.47564,-5.63934 0.77815,-0.0574 1.56209,-0.0369 2.33603,-0.16016 0.7655,-0.13803 1.55155,-0.19546 2.30494,-0.39935 0.99205,1.71224 2.12582,3.38972 3.39762,5.01925 1.04578,-0.36616 2.10316,-0.7202 3.11786,-1.16855 0.0147,-2.11791 -0.11906,-4.15311 -0.42779,-6.14511 0.66277,-0.4141 1.34766,-0.79448 1.98778,-1.23913 0.61746,-0.47732 1.27391,-0.90776 1.85449,-1.42828 1.67273,1.05158 3.45715,2.00886 5.33851,2.86077 0.75286,-0.80871 1.5268,-1.60951 2.21011,-2.47775 -0.9715,-1.88558 -2.02519,-3.61837 -3.22902,-5.2479 0.39513,-0.6733 0.83768,-1.32132 1.18961,-2.01676 0.32506,-0.71018 0.71387,-1.39139 0.9794,-2.12634 1.97145,0.15647 3.99664,0.17491 6.05871,0.0516 0.29451,-1.06791 0.59692,-2.14215 0.80871,-3.22903 -1.7349,-1.21437 -3.50246,-2.26174 -5.299,-3.1363 l 0.11696,-2.33972" />
        <path
           id="path71"
           style="fill:#ac1d94;fill-opacity:1;fill-rule:nonzero;stroke:none;stroke-width:0.526844"
           d="m 734.32658,723.73601 c -2.03941,0 -3.69844,-1.65693 -3.69844,-3.69845 0,-2.04363 1.65903,-3.69581 3.69844,-3.69581 2.04152,0 3.69423,1.65218 3.69423,3.69581 0,2.04152 -1.65271,3.69845 -3.69423,3.69845 z m -11.49995,0 c -2.04152,0 -3.69845,-1.65693 -3.69845,-3.69845 0,-2.04363 1.65693,-3.69581 3.69845,-3.69581 2.0373,0 3.69792,1.65218 3.69792,3.69581 0,2.04152 -1.66062,3.69845 -3.69792,3.69845" />
      </g>
    </g>
  </g>
</svg>
