<?xml version="1.0" encoding="UTF-8" standalone="no"?>
<!-- Generator: Adobe Illustrator 22.1.0, SVG Export Plug-In . SVG Version: 6.00 Build 0)  -->

<svg
   version="1.1"
   x="0px"
   y="0px"
   viewBox="0 0 1000 1000"
   style="enable-background:new 0 0 1000 1000;"
   xml:space="preserve"
   id="svg1621"
   sodipodi:docname="OPENRAIL-association-OK_1.svg"
   inkscape:version="1.2.1 (9c6d41e410, 2022-07-14)"
   xmlns:inkscape="http://www.inkscape.org/namespaces/inkscape"
   xmlns:sodipodi="http://sodipodi.sourceforge.net/DTD/sodipodi-0.dtd"
   xmlns="http://www.w3.org/2000/svg"
   xmlns:svg="http://www.w3.org/2000/svg"><defs
   id="defs1625" /><sodipodi:namedview
   id="namedview1623"
   pagecolor="#ffffff"
   bordercolor="#000000"
   borderopacity="0.25"
   inkscape:showpageshadow="2"
   inkscape:pageopacity="0.0"
   inkscape:pagecheckerboard="0"
   inkscape:deskcolor="#d1d1d1"
   showgrid="false"
   inkscape:zoom="1.0719739"
   inkscape:cx="304.11189"
   inkscape:cy="467.36213"
   inkscape:window-width="1920"
   inkscape:window-height="1027"
   inkscape:window-x="-8"
   inkscape:window-y="-8"
   inkscape:window-maximized="1"
   inkscape:current-layer="logo" />
<style
   type="text/css"
   id="style1089">
	.st0{fill:#54565A;}
	.st1{fill:none;stroke:#000000;stroke-width:3.8758;}
	.st2{fill:#AFB0DA;}
	.st3{display:none;}
	.st4{display:inline;fill:none;}
</style>
<g
   id="ref">
	<g
   id="g1109">
		<g
   id="g1107">
			<path
   class="st0"
   d="M247,667.5c-24.3,0-42.4-16.7-42.4-41.4c0-25,18-40.7,42.4-40.7c24.4,0,42.5,15.7,42.5,40.7     C289.5,650.7,271.4,667.5,247,667.5z M247,602.3c-13.2,0-22.2,10.1-22.2,23.8c0,14.1,9.1,24.2,22.2,24.2     c13.1,0,22.3-10.1,22.3-24.2C269.3,612.5,260.2,602.3,247,602.3z"
   id="path1091" />
			<path
   class="st0"
   d="M335.6,636h-9.3v29.4h-18.8v-77.9H336c17,0,30.5,6.2,30.5,24C366.5,629.5,351.8,636,335.6,636z M334.5,602.7     h-8.3V621h7.9c7,0,13.5-2.1,13.5-9.5C347.7,604.1,341.2,602.7,334.5,602.7z"
   id="path1093" />
			<path
   class="st0"
   d="M383.3,665.4v-77.9h52.4v16h-34.2v14.6h32.3v15.1h-32.3v16.2h36.2v16.1H383.3z"
   id="path1095" />
			<path
   class="st0"
   d="M505.1,665.4l-31.3-50.9h-0.3l0.4,50.9h-18.3v-77.9H477l31.2,50.8h0.3l-0.4-50.8h18.3v77.9H505.1z"
   id="path1097" />
			<path
   class="st0"
   d="M589.7,665.4l-16.8-30.9h-6.4v30.9H548v-77.9h29.7c15,0,29.8,5.7,29.8,23.5c0,10.4-6.2,17.9-16.2,21     l20.4,33.3H589.7z M576.3,602.7h-10v18.2h8.9c6,0,13.6-1.5,13.6-9.5C588.9,604.1,582,602.7,576.3,602.7z"
   id="path1099" />
			<path
   class="st0"
   d="M679.2,665.4l-6-15.3H643l-5.7,15.3h-20.5l32.7-77.9h18.3l32.3,77.9H679.2z M658.3,608.3l-9.9,26.7H668     L658.3,608.3z"
   id="path1101" />
			<path
   class="st0"
   d="M712.1,665.4v-77.9H731v77.9H712.1z"
   id="path1103" />
			<path
   class="st0"
   d="M752.6,665.4v-77.9h18.9V649h30.1v16.4H752.6z"
   id="path1105" />
		</g>
	</g>
</g>
<g
   id="n_xB0_">
	
		<text
   transform="matrix(1 0 0 1 -5589.9541 248.1046)"
   style="opacity:0.2; font-family:'MyriadPro-Regular'; font-size:44.0625px;"
   id="text1112">B3</text>
</g>
<g
   id="logo">
	
	
	
	<g
   id="g1197">
		<g
   id="g1125">
			<g
   id="g1123">
				<path
   class="st0"
   d="M400.2,470.9c-0.6,0-1.2-0.1-1.8-0.2c-0.6-0.1-1.1-0.3-1.7-0.5c-0.5-0.2-1.1-0.5-1.6-0.8      c-0.5-0.3-1-0.7-1.4-1.1c-0.4-0.4-0.8-0.9-1.1-1.4c-0.3-0.5-0.6-1-0.8-1.6c-0.2-0.5-0.4-1.1-0.5-1.7c-0.1-0.6-0.2-1.2-0.2-1.8      s0.1-1.2,0.2-1.8c0.1-0.6,0.3-1.1,0.5-1.7c0.2-0.5,0.5-1.1,0.8-1.5c0.3-0.5,0.7-1,1.1-1.4c0.4-0.4,0.9-0.8,1.4-1.1      c0.5-0.3,1-0.6,1.6-0.8c0.5-0.2,1.1-0.4,1.7-0.5c1.2-0.2,2.4-0.2,3.5,0c0.6,0.1,1.1,0.3,1.7,0.5c0.5,0.2,1.1,0.5,1.6,0.8      c0.5,0.3,1,0.7,1.4,1.1c1.7,1.7,2.6,4,2.6,6.4s-1,4.7-2.6,6.4c-0.4,0.4-0.9,0.8-1.4,1.1c-0.5,0.3-1,0.6-1.6,0.8      c-0.5,0.2-1.1,0.4-1.7,0.5S400.8,470.9,400.2,470.9z"
   id="path1121" />
			</g>
		</g>
		<path
   class="st0"
   d="M373.4,429.4L373.4,429.4L373.4,429.4c-1.4-4.8,1.2-9.8,5.8-11.3l0,0c4.7-1.5,9.6,1.2,11,6l0,0    c1.4,4.8-1.2,9.8-5.8,11.3l0,0c-0.9,0.3-1.7,0.4-2.6,0.4l0,0C378,435.7,374.5,433.2,373.4,429.4z"
   id="path1127" />
		<g
   id="g1133">
			<g
   id="g1131">
				<path
   class="st0"
   d="M554.4,314.4c-0.6,0-1.2-0.1-1.8-0.2c-0.6-0.1-1.1-0.3-1.7-0.5c-0.5-0.2-1.1-0.5-1.5-0.8      c-0.5-0.3-1-0.7-1.4-1.1c-0.4-0.4-0.8-0.9-1.1-1.4c-0.3-0.5-0.6-1-0.8-1.6c-0.2-0.5-0.4-1.1-0.5-1.7c-0.1-0.6-0.2-1.2-0.2-1.8      c0-0.6,0.1-1.2,0.2-1.8c0.1-0.6,0.3-1.1,0.5-1.7c0.2-0.5,0.5-1.1,0.8-1.6c0.3-0.5,0.7-1,1.1-1.4c2.1-2.1,5.2-3.1,8.1-2.5      c0.6,0.1,1.2,0.3,1.7,0.5c0.5,0.2,1.1,0.5,1.6,0.8c0.5,0.3,1,0.7,1.4,1.1c0.4,0.4,0.8,0.9,1.1,1.4c0.3,0.5,0.6,1,0.8,1.6      c0.2,0.5,0.4,1.1,0.5,1.7c0.1,0.6,0.2,1.2,0.2,1.8c0,0.6-0.1,1.2-0.2,1.8c-0.1,0.6-0.3,1.1-0.5,1.7c-0.2,0.6-0.5,1.1-0.8,1.6      c-0.3,0.5-0.7,1-1.1,1.4c-0.4,0.4-0.9,0.8-1.4,1.1c-0.5,0.3-1,0.6-1.6,0.8c-0.5,0.2-1.1,0.4-1.7,0.5      C555.6,314.3,555,314.4,554.4,314.4z"
   id="path1129" />
			</g>
		</g>
		<g
   id="g1183">
			<g
   id="g1181">
				<g
   id="g1137">
					<path
   class="st2"
   d="M494.8,535.4c-35.8,0-69.5-13.9-94.9-39.1c-2.5-2.5-2.5-6.6,0-9.1c2.5-2.5,6.6-2.5,9.1,0       c22.9,22.8,53.4,35.4,85.8,35.4c67.1,0,121.6-54.6,121.6-121.6c0-32.5-12.6-63-35.6-86c-2.5-2.5-2.5-6.6,0-9.1       c2.5-2.5,6.6-2.5,9.1,0c25.4,25.4,39.4,59.2,39.4,95.1C629.3,475.1,568.9,535.4,494.8,535.4z"
   id="path1135" />
				</g>
				<g
   id="g1141">
					<path
   class="st2"
   d="M494.8,498.7c-26.1,0-50.7-10.2-69.2-28.7c-1.8-1.8-1.8-4.8,0-6.6c1.8-1.8,4.8-1.8,6.6,0       c16.7,16.7,38.9,25.9,62.5,25.9c48.8,0,88.4-39.7,88.4-88.4c0-23.6-9.2-45.8-25.9-62.5c-1.8-1.8-1.8-4.8,0-6.6       c1.8-1.8,4.8-1.8,6.6,0c18.5,18.5,28.7,43,28.7,69.2C592.6,454.9,548.7,498.7,494.8,498.7z"
   id="path1139" />
				</g>
				<g
   id="g1179">
					<g
   id="g1145">
						<path
   class="st2"
   d="M421.1,509.4c-1,0-1.9-0.3-2.8-0.9c-2.1-1.5-2.6-4.5-1-6.6l19.4-26.6c1.5-2.1,4.5-2.6,6.6-1        s2.6,4.5,1,6.6l-19.4,26.6C424,508.8,422.5,509.4,421.1,509.4z"
   id="path1143" />
					</g>
					<g
   id="g1149">
						<path
   class="st2"
   d="M568.8,347.2c-1.4,0-2.8-0.6-3.7-1.8c-1.6-2-1.3-5,0.8-6.6l26.6-21.2c2-1.6,5-1.3,6.6,0.8        c1.6,2,1.3,5-0.8,6.6l-26.6,21.2C570.9,346.8,569.9,347.2,568.8,347.2z"
   id="path1147" />
					</g>
					<g
   id="g1153">
						<path
   class="st2"
   d="M591.8,488.3c-1,0-2-0.3-2.9-1l-27.2-21.2c-2-1.6-2.4-4.5-0.8-6.6c1.6-2,4.5-2.4,6.6-0.8l27.2,21.2        c2,1.6,2.4,4.5,0.8,6.6C594.6,487.6,593.2,488.3,591.8,488.3z"
   id="path1151" />
					</g>
					<g
   id="g1157">
						<path
   class="st2"
   d="M622.8,405.6h-34.9c-2.6,0-4.7-2.1-4.7-4.7s2.1-4.7,4.7-4.7h34.9c2.6,0,4.7,2.1,4.7,4.7        S625.4,405.6,622.8,405.6z"
   id="path1155" />
					</g>
					<g
   id="g1161">
						<path
   class="st2"
   d="M508.6,534.2c-2.4,0-4.4-1.8-4.7-4.2l-3.5-34.8c-0.3-2.6,1.6-4.9,4.2-5.1c2.6-0.3,4.9,1.6,5.1,4.2        l3.5,34.8c0.3,2.6-1.6,4.9-4.2,5.1C509,534.2,508.8,534.2,508.6,534.2z"
   id="path1159" />
					</g>
					<g
   id="g1165">
						<path
   class="st2"
   d="M556.1,517.9c-1.7,0-3.4-1-4.2-2.6l-15.1-30.3c-1.2-2.3-0.2-5.1,2.1-6.3c2.3-1.2,5.1-0.2,6.3,2.1        l15.1,30.3c1.2,2.3,0.2,5.1-2.1,6.3C557.5,517.8,556.8,517.9,556.1,517.9z"
   id="path1163" />
					</g>
					<g
   id="g1169">
						<path
   class="st2"
   d="M614.8,448.9c-0.5,0-1.1-0.1-1.6-0.3l-31.5-11.5c-2.4-0.9-3.7-3.6-2.8-6c0.9-2.4,3.6-3.7,6-2.8l31.5,11.5        c2.4,0.9,3.7,3.6,2.8,6C618.6,447.7,616.8,448.9,614.8,448.9z"
   id="path1167" />
					</g>
					<g
   id="g1173">
						<path
   class="st2"
   d="M584,376.8c-2,0-3.8-1.2-4.5-3.2c-0.8-2.5,0.5-5.1,3-5.9l32.7-10.9c2.5-0.8,5.1,0.5,5.9,3        c0.8,2.5-0.5,5.1-3,5.9l-32.7,10.9C585,376.8,584.5,376.8,584,376.8z"
   id="path1171" />
					</g>
					<g
   id="g1177">
						<path
   class="st2"
   d="M464.1,528.2c-0.4,0-0.7,0-1.1-0.1c-2.5-0.6-4.1-3.1-3.5-5.7l7.3-30.3c0.6-2.5,3.1-4.1,5.7-3.5        c2.5,0.6,4.1,3.1,3.5,5.7l-7.3,30.3C468.1,526.8,466.2,528.2,464.1,528.2z"
   id="path1175" />
					</g>
				</g>
			</g>
		</g>
		<path
   class="st0"
   d="M470.6,284.3c-0.4-5,3.4-9.3,8.3-9.7l0,0l0,0l0,0c5-0.4,9.3,3.3,9.7,8.3l0,0c0.4,5-3.4,9.3-8.3,9.7l0,0    c-0.2,0-0.5,0-0.7,0l0,0C475,292.7,471,289.1,470.6,284.3z"
   id="path1185" />
		<path
   class="st0"
   d="M433.2,297.4c-2.1-4.5-0.1-9.9,4.4-12l0,0c4.5-2.1,9.9-0.1,12,4.4l0,0c2.1,4.5,0.1,9.9-4.4,12l0,0    c-1.2,0.6-2.5,0.8-3.8,0.8l0,0C438,302.6,434.7,300.7,433.2,297.4z"
   id="path1187" />
		<path
   class="st0"
   d="M516.5,296.4c-4.8-1.4-7.5-6.4-6.2-11.2l0,0c1.4-4.8,6.4-7.5,11.2-6.2l0,0c4.8,1.4,7.5,6.4,6.2,11.2l0,0    c-1.1,3.9-4.8,6.5-8.7,6.5l0,0C518.1,296.7,517.3,296.6,516.5,296.4z"
   id="path1189" />
		<path
   class="st0"
   d="M402.7,322.8c-3.5-3.5-3.6-9.2-0.1-12.8l0,0c3.5-3.5,9.2-3.6,12.8-0.1l0,0c3.5,3.5,3.6,9.2,0.1,12.8l0,0    c-1.8,1.8-4.1,2.7-6.4,2.7l0,0C406.8,325.4,404.5,324.5,402.7,322.8z"
   id="path1191" />
		<path
   class="st0"
   d="M383.1,357.3c-4.6-2-6.6-7.4-4.6-11.9l0,0c2-4.5,7.4-6.6,11.9-4.5l0,0c4.5,2,6.6,7.4,4.6,11.9l0,0    c-1.5,3.3-4.8,5.3-8.2,5.3l0,0C385.5,358.1,384.3,357.8,383.1,357.3z"
   id="path1193" />
		<path
   class="st0"
   d="M376.8,396.4c-5-0.3-8.8-4.6-8.4-9.5l0,0c0.3-5,4.6-8.8,9.5-8.5l0,0c5,0.3,8.8,4.6,8.5,9.5l0,0    c-0.3,4.8-4.3,8.5-9,8.5l0,0C377.2,396.5,377,396.5,376.8,396.4z"
   id="path1195" />
	</g>
</g>
<g
   id="txt">
	<g
   class="st3"
   id="g1202">
		<path
   class="st4"
   d="M-1651.6,1629.9"
   id="path1200" />
	</g>
	<g
   class="st3"
   id="g1206">
		<path
   class="st4"
   d="M-1651.6,1629.9"
   id="path1204" />
	</g>
	<g
   class="st3"
   id="g1210">
		<path
   class="st4"
   d="M-1651.6,1629.9"
   id="path1208" />
	</g>
	<g
   class="st3"
   id="g1214">
		<path
   class="st4"
   d="M-1651.6,1629.9"
   id="path1212" />
	</g>
	<g
   class="st3"
   id="g1218">
		<path
   class="st4"
   d="M-1651.6,1629.9"
   id="path1216" />
	</g>
	<g
   class="st3"
   id="g1222">
		<path
   class="st4"
   d="M-1651.6,1629.9"
   id="path1220" />
	</g>
	<g
   class="st3"
   id="g1226">
		<path
   class="st4"
   d="M-1651.6,1629.9"
   id="path1224" />
	</g>
	<g
   class="st3"
   id="g1230">
		<path
   class="st4"
   d="M-1651.6,1629.9"
   id="path1228" />
	</g>
	<g
   class="st3"
   id="g1234">
		<path
   class="st4"
   d="M-1651.6,1629.9"
   id="path1232" />
	</g>
	<g
   class="st3"
   id="g1238">
		<path
   class="st4"
   d="M-1651.6,1629.9"
   id="path1236" />
	</g>
	<g
   class="st3"
   id="g1242">
		<path
   class="st4"
   d="M-1651.6,1629.9"
   id="path1240" />
	</g>
	<g
   class="st3"
   id="g1246">
		<path
   class="st4"
   d="M-1651.6,1629.9"
   id="path1244" />
	</g>
	<g
   class="st3"
   id="g1250">
		<path
   class="st4"
   d="M-1651.6,1629.9"
   id="path1248" />
	</g>
	<g
   class="st3"
   id="g1254">
		<path
   class="st4"
   d="M-1651.6,1629.9"
   id="path1252" />
	</g>
	<g
   class="st3"
   id="g1258">
		<path
   class="st4"
   d="M-1651.6,1629.9"
   id="path1256" />
	</g>
	<g
   class="st3"
   id="g1262">
		<path
   class="st4"
   d="M-1651.6,1629.9"
   id="path1260" />
	</g>
	<g
   class="st3"
   id="g1266">
		<path
   class="st4"
   d="M-1651.6,1629.9"
   id="path1264" />
	</g>
	<g
   class="st3"
   id="g1270">
		<path
   class="st4"
   d="M-1651.6,1629.9"
   id="path1268" />
	</g>
	<g
   class="st3"
   id="g1274">
		<path
   class="st4"
   d="M-1651.6,1629.9"
   id="path1272" />
	</g>
	<g
   class="st3"
   id="g1278">
		<path
   class="st4"
   d="M-1651.6,1629.9"
   id="path1276" />
	</g>
	<g
   class="st3"
   id="g1282">
		<path
   class="st4"
   d="M-1651.6,1629.9"
   id="path1280" />
	</g>
	<g
   class="st3"
   id="g1286">
		<path
   class="st4"
   d="M-1651.6,1629.9"
   id="path1284" />
	</g>
	<g
   class="st3"
   id="g1290">
		<path
   class="st4"
   d="M-1651.6,1629.9"
   id="path1288" />
	</g>
	<g
   class="st3"
   id="g1294">
		<path
   class="st4"
   d="M-1651.6,1629.9"
   id="path1292" />
	</g>
	<g
   class="st3"
   id="g1298">
		<path
   class="st4"
   d="M-1651.6,1629.9"
   id="path1296" />
	</g>
	<g
   class="st3"
   id="g1302">
		<path
   class="st4"
   d="M-1651.6,1629.9"
   id="path1300" />
	</g>
	<g
   class="st3"
   id="g1306">
		<path
   class="st4"
   d="M-1651.6,1629.9"
   id="path1304" />
	</g>
	<g
   class="st3"
   id="g1310">
		<path
   class="st4"
   d="M-1651.6,1629.9"
   id="path1308" />
	</g>
	<g
   class="st3"
   id="g1314">
		<path
   class="st4"
   d="M-1651.6,1629.9"
   id="path1312" />
	</g>
	<g
   class="st3"
   id="g1318">
		<path
   class="st4"
   d="M-1651.6,1629.9"
   id="path1316" />
	</g>
	<g
   class="st3"
   id="g1322">
		<path
   class="st4"
   d="M-1651.6,1629.9"
   id="path1320" />
	</g>
	<g
   class="st3"
   id="g1326">
		<path
   class="st4"
   d="M-1651.6,1629.9"
   id="path1324" />
	</g>
	<g
   class="st3"
   id="g1330">
		<path
   class="st4"
   d="M-1651.6,1629.9"
   id="path1328" />
	</g>
	<g
   class="st3"
   id="g1334">
		<path
   class="st4"
   d="M-1651.6,1629.9"
   id="path1332" />
	</g>
	<g
   class="st3"
   id="g1338">
		<path
   class="st4"
   d="M-1651.6,1629.9"
   id="path1336" />
	</g>
	<g
   class="st3"
   id="g1342">
		<path
   class="st4"
   d="M-1651.6,1629.9"
   id="path1340" />
	</g>
	<g
   class="st3"
   id="g1346">
		<path
   class="st4"
   d="M-1651.6,1629.9"
   id="path1344" />
	</g>
	<g
   class="st3"
   id="g1350">
		<path
   class="st4"
   d="M-1651.6,1629.9"
   id="path1348" />
	</g>
	<g
   class="st3"
   id="g1354">
		<path
   class="st4"
   d="M-1651.6,1629.9"
   id="path1352" />
	</g>
	<g
   class="st3"
   id="g1358">
		<path
   class="st4"
   d="M-1651.6,1629.9"
   id="path1356" />
	</g>
	<g
   class="st3"
   id="g1362">
		<path
   class="st4"
   d="M-1651.6,1629.9"
   id="path1360" />
	</g>
	<g
   class="st3"
   id="g1366">
		<path
   class="st4"
   d="M-1651.6,1629.9"
   id="path1364" />
	</g>
	<g
   class="st3"
   id="g1370">
		<path
   class="st4"
   d="M-1651.6,1629.9"
   id="path1368" />
	</g>
	<g
   class="st3"
   id="g1374">
		<path
   class="st4"
   d="M-1651.6,1629.9"
   id="path1372" />
	</g>
	<g
   class="st3"
   id="g1378">
		<path
   class="st4"
   d="M-1651.6,1629.9"
   id="path1376" />
	</g>
	<g
   class="st3"
   id="g1382">
		<path
   class="st4"
   d="M-1651.6,1629.9"
   id="path1380" />
	</g>
	<g
   class="st3"
   id="g1386">
		<path
   class="st4"
   d="M-1651.6,1629.9"
   id="path1384" />
	</g>
	<g
   class="st3"
   id="g1390">
		<path
   class="st4"
   d="M-1651.6,1629.9"
   id="path1388" />
	</g>
	<g
   class="st3"
   id="g1394">
		<path
   class="st4"
   d="M-1651.6,1629.9"
   id="path1392" />
	</g>
	<g
   class="st3"
   id="g1398">
		<path
   class="st4"
   d="M-1651.6,1629.9"
   id="path1396" />
	</g>
	<g
   class="st3"
   id="g1402">
		<path
   class="st4"
   d="M-1651.6,1629.9"
   id="path1400" />
	</g>
	<g
   class="st3"
   id="g1406">
		<path
   class="st4"
   d="M-1651.6,1629.9"
   id="path1404" />
	</g>
	<g
   class="st3"
   id="g1410">
		<path
   class="st4"
   d="M-1651.6,1629.9"
   id="path1408" />
	</g>
	<g
   class="st3"
   id="g1414">
		<path
   class="st4"
   d="M-1651.6,1629.9"
   id="path1412" />
	</g>
	<g
   class="st3"
   id="g1418">
		<path
   class="st4"
   d="M-1651.6,1629.9"
   id="path1416" />
	</g>
	<g
   class="st3"
   id="g1422">
		<path
   class="st4"
   d="M-1651.6,1629.9"
   id="path1420" />
	</g>
	<g
   class="st3"
   id="g1426">
		<path
   class="st4"
   d="M-1651.6,1629.9"
   id="path1424" />
	</g>
	<g
   class="st3"
   id="g1430">
		<path
   class="st4"
   d="M-1651.6,1629.9"
   id="path1428" />
	</g>
	<g
   class="st3"
   id="g1434">
		<path
   class="st4"
   d="M-1651.6,1629.9"
   id="path1432" />
	</g>
	<g
   class="st3"
   id="g1438">
		<path
   class="st4"
   d="M-1651.6,1629.9"
   id="path1436" />
	</g>
	<g
   class="st3"
   id="g1442">
		<path
   class="st4"
   d="M-1651.6,1629.9"
   id="path1440" />
	</g>
	<g
   class="st3"
   id="g1446">
		<path
   class="st4"
   d="M-1651.6,1629.9"
   id="path1444" />
	</g>
	<g
   class="st3"
   id="g1450">
		<path
   class="st4"
   d="M-1651.6,1629.9"
   id="path1448" />
	</g>
	<g
   class="st3"
   id="g1454">
		<path
   class="st4"
   d="M-1651.6,1629.9"
   id="path1452" />
	</g>
	<g
   class="st3"
   id="g1458">
		<path
   class="st4"
   d="M-1651.6,1629.9"
   id="path1456" />
	</g>
	<g
   class="st3"
   id="g1462">
		<path
   class="st4"
   d="M-1651.6,1629.9"
   id="path1460" />
	</g>
	<g
   class="st3"
   id="g1466">
		<path
   class="st4"
   d="M-1651.6,1629.9"
   id="path1464" />
	</g>
	<g
   class="st3"
   id="g1470">
		<path
   class="st4"
   d="M-1651.6,1629.9"
   id="path1468" />
	</g>
	<g
   class="st3"
   id="g1474">
		<path
   class="st4"
   d="M-1651.6,1629.9"
   id="path1472" />
	</g>
	<g
   class="st3"
   id="g1478">
		<path
   class="st4"
   d="M-1651.6,1629.9"
   id="path1476" />
	</g>
	<g
   class="st3"
   id="g1482">
		<path
   class="st4"
   d="M-1651.6,1629.9"
   id="path1480" />
	</g>
	<g
   class="st3"
   id="g1486">
		<path
   class="st4"
   d="M-1651.6,1629.9"
   id="path1484" />
	</g>
	<g
   class="st3"
   id="g1490">
		<path
   class="st4"
   d="M-1651.6,1629.9"
   id="path1488" />
	</g>
	<g
   class="st3"
   id="g1494">
		<path
   class="st4"
   d="M-1651.6,1629.9"
   id="path1492" />
	</g>
	<g
   class="st3"
   id="g1498">
		<path
   class="st4"
   d="M-1651.6,1629.9"
   id="path1496" />
	</g>
	<g
   class="st3"
   id="g1502">
		<path
   class="st4"
   d="M-1651.6,1629.9"
   id="path1500" />
	</g>
	<g
   class="st3"
   id="g1506">
		<path
   class="st4"
   d="M-1651.6,1629.9"
   id="path1504" />
	</g>
	<g
   class="st3"
   id="g1510">
		<path
   class="st4"
   d="M-1651.6,1629.9"
   id="path1508" />
	</g>
	<g
   class="st3"
   id="g1514">
		<path
   class="st4"
   d="M-1651.6,1629.9"
   id="path1512" />
	</g>
	<g
   class="st3"
   id="g1518">
		<path
   class="st4"
   d="M-1651.6,1629.9"
   id="path1516" />
	</g>
	<g
   class="st3"
   id="g1522">
		<path
   class="st4"
   d="M-1651.6,1629.9"
   id="path1520" />
	</g>
	<g
   class="st3"
   id="g1526">
		<path
   class="st4"
   d="M-1651.6,1629.9"
   id="path1524" />
	</g>
	<g
   class="st3"
   id="g1530">
		<path
   class="st4"
   d="M-1651.6,1629.9"
   id="path1528" />
	</g>
	<g
   class="st3"
   id="g1534">
		<path
   class="st4"
   d="M-1651.6,1629.9"
   id="path1532" />
	</g>
	<g
   class="st3"
   id="g1538">
		<path
   class="st4"
   d="M-1651.6,1629.9"
   id="path1536" />
	</g>
	<g
   class="st3"
   id="g1542">
		<path
   class="st4"
   d="M-1651.6,1629.9"
   id="path1540" />
	</g>
	<g
   class="st3"
   id="g1546">
		<path
   class="st4"
   d="M-1651.6,1629.9"
   id="path1544" />
	</g>
	<g
   class="st3"
   id="g1550">
		<path
   class="st4"
   d="M-1651.6,1629.9"
   id="path1548" />
	</g>
	<g
   class="st3"
   id="g1554">
		<path
   class="st4"
   d="M-1651.6,1629.9"
   id="path1552" />
	</g>
	<g
   class="st3"
   id="g1558">
		<path
   class="st4"
   d="M-1651.6,1629.9"
   id="path1556" />
	</g>
	<g
   class="st3"
   id="g1562">
		<path
   class="st4"
   d="M-1651.6,1629.9"
   id="path1560" />
	</g>
	<g
   class="st3"
   id="g1566">
		<path
   class="st4"
   d="M-1651.6,1629.9"
   id="path1564" />
	</g>
	<g
   class="st3"
   id="g1570">
		<path
   class="st4"
   d="M-1651.6,1629.9"
   id="path1568" />
	</g>
	<g
   class="st3"
   id="g1574">
		<path
   class="st4"
   d="M-1651.6,1629.9"
   id="path1572" />
	</g>
	<g
   class="st3"
   id="g1578">
		<path
   class="st4"
   d="M-1651.6,1629.9"
   id="path1576" />
	</g>
	<g
   class="st3"
   id="g1582">
		<path
   class="st4"
   d="M-1651.6,1629.9"
   id="path1580" />
	</g>
	<g
   class="st3"
   id="g1586">
		<path
   class="st4"
   d="M-1651.6,1629.9"
   id="path1584" />
	</g>
	<g
   class="st3"
   id="g1590">
		<path
   class="st4"
   d="M-1651.6,1629.9"
   id="path1588" />
	</g>
	<g
   class="st3"
   id="g1594">
		<path
   class="st4"
   d="M-1651.6,1629.9"
   id="path1592" />
	</g>
	<g
   id="g1618">
		<path
   class="st2"
   d="M245.8,680.2h3.5l15.2,36.1h-3.8l-3.9-9.6h-19.1l-4.1,9.6H230L245.8,680.2z M247.4,683.8l-8.4,19.8h16.6    L247.4,683.8z"
   id="path1596" />
		<path
   class="st2"
   d="M290,709.6c1.8,3,4.7,4.5,8.3,4.5c4.5,0,8.1-2.8,8.1-7.1c0-10.1-18.6-4.2-18.6-17.9c0-6.4,5.5-9.9,11.6-9.9    c3.9,0,7.4,1.3,9.8,4.5l-2.9,2.1c-1.7-2.3-3.9-3.6-7-3.6c-4.3,0-8.1,2.2-8.1,6.8c0,10.9,18.6,4.3,18.6,17.9    c0,6.5-5.4,10.1-11.2,10.1c-4.7,0-8.9-1.5-11.7-5.5L290,709.6z"
   id="path1598" />
		<path
   class="st2"
   d="M337.7,709.6c1.8,3,4.7,4.5,8.3,4.5c4.5,0,8.1-2.8,8.1-7.1c0-10.1-18.6-4.2-18.6-17.9c0-6.4,5.5-9.9,11.6-9.9    c3.9,0,7.4,1.3,9.8,4.5l-2.9,2.1c-1.7-2.3-3.9-3.6-7-3.6c-4.3,0-8.1,2.2-8.1,6.8c0,10.9,18.6,4.3,18.6,17.9    c0,6.5-5.4,10.1-11.2,10.1c-4.7,0-8.9-1.5-11.7-5.5L337.7,709.6z"
   id="path1600" />
		<path
   class="st2"
   d="M400.8,679.3c11,0,18.7,8,18.7,19s-7.6,19-18.7,19s-18.7-8-18.7-19S389.8,679.3,400.8,679.3z M400.8,714.1    c9.4,0,15.3-6.9,15.3-15.9s-5.9-15.9-15.3-15.9c-9.4,0-15.3,6.9-15.3,15.9S391.3,714.1,400.8,714.1z"
   id="path1602" />
		<path
   class="st2"
   d="M476.1,710.6c-3.4,4.7-8.1,6.6-13.4,6.6c-11,0-18.7-8-18.7-19s7.6-19,18.7-19c4.9,0,9.3,1.6,12.4,5.7    l-2.8,2.3c-2.2-3.4-6.1-4.9-9.7-4.9c-9.4,0-15.3,6.9-15.3,15.9s5.9,15.9,15.3,15.9c3.6,0,8.1-1.7,10.7-5.6L476.1,710.6z"
   id="path1604" />
		<path
   class="st2"
   d="M501.6,680.2h3.4v36.1h-3.4V680.2z"
   id="path1606" />
		<path
   class="st2"
   d="M545.3,680.2h3.5l15.2,36.1h-3.8l-3.9-9.6h-19.1l-4.1,9.6h-3.5L545.3,680.2z M546.9,683.8l-8.4,19.8h16.6    L546.9,683.8z"
   id="path1608" />
		<path
   class="st2"
   d="M593.1,683.2h-12.3v-3.1h28v3.1h-12.3v33h-3.4V683.2z"
   id="path1610" />
		<path
   class="st2"
   d="M633.7,680.2h3.4v36.1h-3.4V680.2z"
   id="path1612" />
		<path
   class="st2"
   d="M682.7,679.3c11,0,18.7,8,18.7,19s-7.6,19-18.7,19s-18.7-8-18.7-19S671.7,679.3,682.7,679.3z M682.7,714.1    c9.4,0,15.3-6.9,15.3-15.9s-5.9-15.9-15.3-15.9c-9.4,0-15.3,6.9-15.3,15.9S673.2,714.1,682.7,714.1z"
   id="path1614" />
		<path
   class="st2"
   d="M728.3,680.2h4.3l22,31.6h0.1v-31.6h3.4v36.1h-4.3l-22-31.6h-0.1v31.6h-3.4V680.2z"
   id="path1616" />
	</g>
</g>
</svg>
