<?xml version="1.0" encoding="UTF-8" standalone="no"?>
<!-- Generator: Adobe Illustrator 22.1.0, SVG Export Plug-In . SVG Version: 6.00 Build 0)  -->

<svg
   version="1.1"
   x="0px"
   y="0px"
   viewBox="0 0 1000 1000"
   style="enable-background:new 0 0 1000 1000;"
   xml:space="preserve"
   id="svg534"
   sodipodi:docname="OPENRAIL-association-OK_2.svg"
   inkscape:version="1.2.1 (9c6d41e410, 2022-07-14)"
   xmlns:inkscape="http://www.inkscape.org/namespaces/inkscape"
   xmlns:sodipodi="http://sodipodi.sourceforge.net/DTD/sodipodi-0.dtd"
   xmlns="http://www.w3.org/2000/svg"
   xmlns:svg="http://www.w3.org/2000/svg"><defs
   id="defs538" /><sodipodi:namedview
   id="namedview536"
   pagecolor="#ffffff"
   bordercolor="#000000"
   borderopacity="0.25"
   inkscape:showpageshadow="2"
   inkscape:pageopacity="0.0"
   inkscape:pagecheckerboard="0"
   inkscape:deskcolor="#d1d1d1"
   showgrid="false"
   inkscape:zoom="1.28"
   inkscape:cx="347.65625"
   inkscape:cy="721.875"
   inkscape:window-width="1920"
   inkscape:window-height="1027"
   inkscape:window-x="-8"
   inkscape:window-y="-8"
   inkscape:window-maximized="1"
   inkscape:current-layer="svg534" />
<style
   type="text/css"
   id="style2">
	.st0{fill:#54565A;}
	.st1{fill:none;stroke:#000000;stroke-width:3.8758;}
	.st2{fill:#AFB0DA;}
	.st3{display:none;}
	.st4{display:inline;fill:none;}
</style>
<g
   id="ref">
	<g
   id="g22">
		<g
   id="g20">
			
			<path
   class="st0"
   d="M335.6,636h-9.3v29.4h-18.8v-77.9H336c17,0,30.5,6.2,30.5,24C366.5,629.5,351.8,636,335.6,636z M334.5,602.7     h-8.3V621h7.9c7,0,13.5-2.1,13.5-9.5C347.7,604.1,341.2,602.7,334.5,602.7z"
   id="path6" />
			<path
   class="st0"
   d="M383.3,665.4v-77.9h52.4v16h-34.2v14.6h32.3v15.1h-32.3v16.2h36.2v16.1H383.3z"
   id="path8" />
			<path
   class="st0"
   d="M505.1,665.4l-31.3-50.9h-0.3l0.4,50.9h-18.3v-77.9H477l31.2,50.8h0.3l-0.4-50.8h18.3v77.9H505.1z"
   id="path10" />
			<path
   class="st0"
   d="M589.7,665.4l-16.8-30.9h-6.4v30.9H548v-77.9h29.7c15,0,29.8,5.7,29.8,23.5c0,10.4-6.2,17.9-16.2,21     l20.4,33.3H589.7z M576.3,602.7h-10v18.2h8.9c6,0,13.6-1.5,13.6-9.5C588.9,604.1,582,602.7,576.3,602.7z"
   id="path12" />
			<path
   class="st0"
   d="M679.2,665.4l-6-15.3H643l-5.7,15.3h-20.5l32.7-77.9h18.3l32.3,77.9H679.2z M658.3,608.3l-9.9,26.7H668     L658.3,608.3z"
   id="path14" />
			<path
   class="st0"
   d="M712.1,665.4v-77.9H731v77.9H712.1z"
   id="path16" />
			<path
   class="st0"
   d="M752.6,665.4v-77.9h18.9V649h30.1v16.4H752.6z"
   id="path18" />
		</g>
	</g>
</g>
<g
   id="n_xB0_">
	
		<text
   transform="matrix(1 0 0 1 -5589.9541 248.1046)"
   style="opacity:0.2; font-family:'MyriadPro-Regular'; font-size:44.0625px;"
   id="text25">B3</text>
</g>
<g
   id="logo"
   transform="matrix(0.36791631,0,0,0.36791631,64.220264,473.01178)">
	
	
	
	<g
   id="g110"
   transform="matrix(1.00625,0,0,1.00625,-6.3157586,-1.7161648)">
		<g
   id="g38">
			<g
   id="g36">
				<path
   class="st0"
   d="m 400.2,470.9 c -0.6,0 -1.2,-0.1 -1.8,-0.2 -0.6,-0.1 -1.1,-0.3 -1.7,-0.5 -0.5,-0.2 -1.1,-0.5 -1.6,-0.8 -0.5,-0.3 -1,-0.7 -1.4,-1.1 -0.4,-0.4 -0.8,-0.9 -1.1,-1.4 -0.3,-0.5 -0.6,-1 -0.8,-1.6 -0.2,-0.5 -0.4,-1.1 -0.5,-1.7 -0.1,-0.6 -0.2,-1.2 -0.2,-1.8 0,-0.6 0.1,-1.2 0.2,-1.8 0.1,-0.6 0.3,-1.1 0.5,-1.7 0.2,-0.5 0.5,-1.1 0.8,-1.5 0.3,-0.5 0.7,-1 1.1,-1.4 0.4,-0.4 0.9,-0.8 1.4,-1.1 0.5,-0.3 1,-0.6 1.6,-0.8 0.5,-0.2 1.1,-0.4 1.7,-0.5 1.2,-0.2 2.4,-0.2 3.5,0 0.6,0.1 1.1,0.3 1.7,0.5 0.5,0.2 1.1,0.5 1.6,0.8 0.5,0.3 1,0.7 1.4,1.1 1.7,1.7 2.6,4 2.6,6.4 0,2.4 -1,4.7 -2.6,6.4 -0.4,0.4 -0.9,0.8 -1.4,1.1 -0.5,0.3 -1,0.6 -1.6,0.8 -0.5,0.2 -1.1,0.4 -1.7,0.5 -0.6,0.1 -1.1,0.3 -1.7,0.3 z"
   id="path34" />
			</g>
		</g>
		<path
   class="st0"
   d="m 373.4,429.4 v 0 0 c -1.4,-4.8 1.2,-9.8 5.8,-11.3 v 0 c 4.7,-1.5 9.6,1.2 11,6 v 0 c 1.4,4.8 -1.2,9.8 -5.8,11.3 v 0 c -0.9,0.3 -1.7,0.4 -2.6,0.4 v 0 c -3.8,-0.1 -7.3,-2.6 -8.4,-6.4 z"
   id="path40" />
		<g
   id="g46">
			<g
   id="g44">
				<path
   class="st0"
   d="m 554.4,314.4 c -0.6,0 -1.2,-0.1 -1.8,-0.2 -0.6,-0.1 -1.1,-0.3 -1.7,-0.5 -0.5,-0.2 -1.1,-0.5 -1.5,-0.8 -0.5,-0.3 -1,-0.7 -1.4,-1.1 -0.4,-0.4 -0.8,-0.9 -1.1,-1.4 -0.3,-0.5 -0.6,-1 -0.8,-1.6 -0.2,-0.5 -0.4,-1.1 -0.5,-1.7 -0.1,-0.6 -0.2,-1.2 -0.2,-1.8 0,-0.6 0.1,-1.2 0.2,-1.8 0.1,-0.6 0.3,-1.1 0.5,-1.7 0.2,-0.5 0.5,-1.1 0.8,-1.6 0.3,-0.5 0.7,-1 1.1,-1.4 2.1,-2.1 5.2,-3.1 8.1,-2.5 0.6,0.1 1.2,0.3 1.7,0.5 0.5,0.2 1.1,0.5 1.6,0.8 0.5,0.3 1,0.7 1.4,1.1 0.4,0.4 0.8,0.9 1.1,1.4 0.3,0.5 0.6,1 0.8,1.6 0.2,0.5 0.4,1.1 0.5,1.7 0.1,0.6 0.2,1.2 0.2,1.8 0,0.6 -0.1,1.2 -0.2,1.8 -0.1,0.6 -0.3,1.1 -0.5,1.7 -0.2,0.6 -0.5,1.1 -0.8,1.6 -0.3,0.5 -0.7,1 -1.1,1.4 -0.4,0.4 -0.9,0.8 -1.4,1.1 -0.5,0.3 -1,0.6 -1.6,0.8 -0.5,0.2 -1.1,0.4 -1.7,0.5 -0.5,0.2 -1.1,0.3 -1.7,0.3 z"
   id="path42" />
			</g>
		</g>
		<g
   id="g96">
			<g
   id="g94">
				<g
   id="g50">
					<path
   class="st2"
   d="m 494.8,535.4 c -35.8,0 -69.5,-13.9 -94.9,-39.1 -2.5,-2.5 -2.5,-6.6 0,-9.1 2.5,-2.5 6.6,-2.5 9.1,0 22.9,22.8 53.4,35.4 85.8,35.4 67.1,0 121.6,-54.6 121.6,-121.6 0,-32.5 -12.6,-63 -35.6,-86 -2.5,-2.5 -2.5,-6.6 0,-9.1 2.5,-2.5 6.6,-2.5 9.1,0 25.4,25.4 39.4,59.2 39.4,95.1 0,74.1 -60.4,134.4 -134.5,134.4 z"
   id="path48" />
				</g>
				<g
   id="g54">
					<path
   class="st2"
   d="m 494.8,498.7 c -26.1,0 -50.7,-10.2 -69.2,-28.7 -1.8,-1.8 -1.8,-4.8 0,-6.6 1.8,-1.8 4.8,-1.8 6.6,0 16.7,16.7 38.9,25.9 62.5,25.9 48.8,0 88.4,-39.7 88.4,-88.4 0,-23.6 -9.2,-45.8 -25.9,-62.5 -1.8,-1.8 -1.8,-4.8 0,-6.6 1.8,-1.8 4.8,-1.8 6.6,0 18.5,18.5 28.7,43 28.7,69.2 0.1,53.9 -43.8,97.7 -97.7,97.7 z"
   id="path52" />
				</g>
				<g
   id="g92">
					<g
   id="g58">
						<path
   class="st2"
   d="m 421.1,509.4 c -1,0 -1.9,-0.3 -2.8,-0.9 -2.1,-1.5 -2.6,-4.5 -1,-6.6 l 19.4,-26.6 c 1.5,-2.1 4.5,-2.6 6.6,-1 2.1,1.6 2.6,4.5 1,6.6 l -19.4,26.6 c -0.9,1.3 -2.4,1.9 -3.8,1.9 z"
   id="path56" />
					</g>
					<g
   id="g62">
						<path
   class="st2"
   d="m 568.8,347.2 c -1.4,0 -2.8,-0.6 -3.7,-1.8 -1.6,-2 -1.3,-5 0.8,-6.6 l 26.6,-21.2 c 2,-1.6 5,-1.3 6.6,0.8 1.6,2 1.3,5 -0.8,6.6 l -26.6,21.2 c -0.8,0.6 -1.8,1 -2.9,1 z"
   id="path60" />
					</g>
					<g
   id="g66">
						<path
   class="st2"
   d="m 591.8,488.3 c -1,0 -2,-0.3 -2.9,-1 l -27.2,-21.2 c -2,-1.6 -2.4,-4.5 -0.8,-6.6 1.6,-2 4.5,-2.4 6.6,-0.8 l 27.2,21.2 c 2,1.6 2.4,4.5 0.8,6.6 -0.9,1.1 -2.3,1.8 -3.7,1.8 z"
   id="path64" />
					</g>
					<g
   id="g70">
						<path
   class="st2"
   d="m 622.8,405.6 h -34.9 c -2.6,0 -4.7,-2.1 -4.7,-4.7 0,-2.6 2.1,-4.7 4.7,-4.7 h 34.9 c 2.6,0 4.7,2.1 4.7,4.7 0,2.6 -2.1,4.7 -4.7,4.7 z"
   id="path68" />
					</g>
					<g
   id="g74">
						<path
   class="st2"
   d="m 508.6,534.2 c -2.4,0 -4.4,-1.8 -4.7,-4.2 l -3.5,-34.8 c -0.3,-2.6 1.6,-4.9 4.2,-5.1 2.6,-0.3 4.9,1.6 5.1,4.2 l 3.5,34.8 c 0.3,2.6 -1.6,4.9 -4.2,5.1 0,0 -0.2,0 -0.4,0 z"
   id="path72" />
					</g>
					<g
   id="g78">
						<path
   class="st2"
   d="m 556.1,517.9 c -1.7,0 -3.4,-1 -4.2,-2.6 L 536.8,485 c -1.2,-2.3 -0.2,-5.1 2.1,-6.3 2.3,-1.2 5.1,-0.2 6.3,2.1 l 15.1,30.3 c 1.2,2.3 0.2,5.1 -2.1,6.3 -0.7,0.4 -1.4,0.5 -2.1,0.5 z"
   id="path76" />
					</g>
					<g
   id="g82">
						<path
   class="st2"
   d="m 614.8,448.9 c -0.5,0 -1.1,-0.1 -1.6,-0.3 l -31.5,-11.5 c -2.4,-0.9 -3.7,-3.6 -2.8,-6 0.9,-2.4 3.6,-3.7 6,-2.8 l 31.5,11.5 c 2.4,0.9 3.7,3.6 2.8,6 -0.6,1.9 -2.4,3.1 -4.4,3.1 z"
   id="path80" />
					</g>
					<g
   id="g86">
						<path
   class="st2"
   d="m 584,376.8 c -2,0 -3.8,-1.2 -4.5,-3.2 -0.8,-2.5 0.5,-5.1 3,-5.9 l 32.7,-10.9 c 2.5,-0.8 5.1,0.5 5.9,3 0.8,2.5 -0.5,5.1 -3,5.9 l -32.7,10.9 c -0.4,0.2 -0.9,0.2 -1.4,0.2 z"
   id="path84" />
					</g>
					<g
   id="g90">
						<path
   class="st2"
   d="m 464.1,528.2 c -0.4,0 -0.7,0 -1.1,-0.1 -2.5,-0.6 -4.1,-3.1 -3.5,-5.7 l 7.3,-30.3 c 0.6,-2.5 3.1,-4.1 5.7,-3.5 2.5,0.6 4.1,3.1 3.5,5.7 l -7.3,30.3 c -0.6,2.2 -2.5,3.6 -4.6,3.6 z"
   id="path88" />
					</g>
				</g>
			</g>
		</g>
		<path
   class="st0"
   d="m 470.6,284.3 c -0.4,-5 3.4,-9.3 8.3,-9.7 v 0 0 0 c 5,-0.4 9.3,3.3 9.7,8.3 v 0 c 0.4,5 -3.4,9.3 -8.3,9.7 v 0 c -0.2,0 -0.5,0 -0.7,0 v 0 c -4.6,0.1 -8.6,-3.5 -9,-8.3 z"
   id="path98" />
		<path
   class="st0"
   d="m 433.2,297.4 c -2.1,-4.5 -0.1,-9.9 4.4,-12 v 0 c 4.5,-2.1 9.9,-0.1 12,4.4 v 0 c 2.1,4.5 0.1,9.9 -4.4,12 v 0 c -1.2,0.6 -2.5,0.8 -3.8,0.8 v 0 c -3.4,0 -6.7,-1.9 -8.2,-5.2 z"
   id="path100" />
		<path
   class="st0"
   d="M 516.5,296.4 C 511.7,295 509,290 510.3,285.2 v 0 c 1.4,-4.8 6.4,-7.5 11.2,-6.2 v 0 c 4.8,1.4 7.5,6.4 6.2,11.2 v 0 c -1.1,3.9 -4.8,6.5 -8.7,6.5 v 0 c -0.9,0 -1.7,-0.1 -2.5,-0.3 z"
   id="path102" />
		<path
   class="st0"
   d="m 402.7,322.8 c -3.5,-3.5 -3.6,-9.2 -0.1,-12.8 v 0 c 3.5,-3.5 9.2,-3.6 12.8,-0.1 v 0 c 3.5,3.5 3.6,9.2 0.1,12.8 v 0 c -1.8,1.8 -4.1,2.7 -6.4,2.7 v 0 c -2.3,0 -4.6,-0.9 -6.4,-2.6 z"
   id="path104" />
		<path
   class="st0"
   d="m 383.1,357.3 c -4.6,-2 -6.6,-7.4 -4.6,-11.9 v 0 c 2,-4.5 7.4,-6.6 11.9,-4.5 v 0 c 4.5,2 6.6,7.4 4.6,11.9 v 0 c -1.5,3.3 -4.8,5.3 -8.2,5.3 v 0 c -1.3,0 -2.5,-0.3 -3.7,-0.8 z"
   id="path106" />
		<path
   class="st0"
   d="m 376.8,396.4 c -5,-0.3 -8.8,-4.6 -8.4,-9.5 v 0 c 0.3,-5 4.6,-8.8 9.5,-8.5 v 0 c 5,0.3 8.8,4.6 8.5,9.5 v 0 c -0.3,4.8 -4.3,8.5 -9,8.5 v 0 c -0.2,0.1 -0.4,0.1 -0.6,0 z"
   id="path108" />
	</g>
</g>
<g
   id="txt">
	<g
   class="st3"
   id="g115">
		<path
   class="st4"
   d="M-1651.6,1629.9"
   id="path113" />
	</g>
	<g
   class="st3"
   id="g119">
		<path
   class="st4"
   d="M-1651.6,1629.9"
   id="path117" />
	</g>
	<g
   class="st3"
   id="g123">
		<path
   class="st4"
   d="M-1651.6,1629.9"
   id="path121" />
	</g>
	<g
   class="st3"
   id="g127">
		<path
   class="st4"
   d="M-1651.6,1629.9"
   id="path125" />
	</g>
	<g
   class="st3"
   id="g131">
		<path
   class="st4"
   d="M-1651.6,1629.9"
   id="path129" />
	</g>
	<g
   class="st3"
   id="g135">
		<path
   class="st4"
   d="M-1651.6,1629.9"
   id="path133" />
	</g>
	<g
   class="st3"
   id="g139">
		<path
   class="st4"
   d="M-1651.6,1629.9"
   id="path137" />
	</g>
	<g
   class="st3"
   id="g143">
		<path
   class="st4"
   d="M-1651.6,1629.9"
   id="path141" />
	</g>
	<g
   class="st3"
   id="g147">
		<path
   class="st4"
   d="M-1651.6,1629.9"
   id="path145" />
	</g>
	<g
   class="st3"
   id="g151">
		<path
   class="st4"
   d="M-1651.6,1629.9"
   id="path149" />
	</g>
	<g
   class="st3"
   id="g155">
		<path
   class="st4"
   d="M-1651.6,1629.9"
   id="path153" />
	</g>
	<g
   class="st3"
   id="g159">
		<path
   class="st4"
   d="M-1651.6,1629.9"
   id="path157" />
	</g>
	<g
   class="st3"
   id="g163">
		<path
   class="st4"
   d="M-1651.6,1629.9"
   id="path161" />
	</g>
	<g
   class="st3"
   id="g167">
		<path
   class="st4"
   d="M-1651.6,1629.9"
   id="path165" />
	</g>
	<g
   class="st3"
   id="g171">
		<path
   class="st4"
   d="M-1651.6,1629.9"
   id="path169" />
	</g>
	<g
   class="st3"
   id="g175">
		<path
   class="st4"
   d="M-1651.6,1629.9"
   id="path173" />
	</g>
	<g
   class="st3"
   id="g179">
		<path
   class="st4"
   d="M-1651.6,1629.9"
   id="path177" />
	</g>
	<g
   class="st3"
   id="g183">
		<path
   class="st4"
   d="M-1651.6,1629.9"
   id="path181" />
	</g>
	<g
   class="st3"
   id="g187">
		<path
   class="st4"
   d="M-1651.6,1629.9"
   id="path185" />
	</g>
	<g
   class="st3"
   id="g191">
		<path
   class="st4"
   d="M-1651.6,1629.9"
   id="path189" />
	</g>
	<g
   class="st3"
   id="g195">
		<path
   class="st4"
   d="M-1651.6,1629.9"
   id="path193" />
	</g>
	<g
   class="st3"
   id="g199">
		<path
   class="st4"
   d="M-1651.6,1629.9"
   id="path197" />
	</g>
	<g
   class="st3"
   id="g203">
		<path
   class="st4"
   d="M-1651.6,1629.9"
   id="path201" />
	</g>
	<g
   class="st3"
   id="g207">
		<path
   class="st4"
   d="M-1651.6,1629.9"
   id="path205" />
	</g>
	<g
   class="st3"
   id="g211">
		<path
   class="st4"
   d="M-1651.6,1629.9"
   id="path209" />
	</g>
	<g
   class="st3"
   id="g215">
		<path
   class="st4"
   d="M-1651.6,1629.9"
   id="path213" />
	</g>
	<g
   class="st3"
   id="g219">
		<path
   class="st4"
   d="M-1651.6,1629.9"
   id="path217" />
	</g>
	<g
   class="st3"
   id="g223">
		<path
   class="st4"
   d="M-1651.6,1629.9"
   id="path221" />
	</g>
	<g
   class="st3"
   id="g227">
		<path
   class="st4"
   d="M-1651.6,1629.9"
   id="path225" />
	</g>
	<g
   class="st3"
   id="g231">
		<path
   class="st4"
   d="M-1651.6,1629.9"
   id="path229" />
	</g>
	<g
   class="st3"
   id="g235">
		<path
   class="st4"
   d="M-1651.6,1629.9"
   id="path233" />
	</g>
	<g
   class="st3"
   id="g239">
		<path
   class="st4"
   d="M-1651.6,1629.9"
   id="path237" />
	</g>
	<g
   class="st3"
   id="g243">
		<path
   class="st4"
   d="M-1651.6,1629.9"
   id="path241" />
	</g>
	<g
   class="st3"
   id="g247">
		<path
   class="st4"
   d="M-1651.6,1629.9"
   id="path245" />
	</g>
	<g
   class="st3"
   id="g251">
		<path
   class="st4"
   d="M-1651.6,1629.9"
   id="path249" />
	</g>
	<g
   class="st3"
   id="g255">
		<path
   class="st4"
   d="M-1651.6,1629.9"
   id="path253" />
	</g>
	<g
   class="st3"
   id="g259">
		<path
   class="st4"
   d="M-1651.6,1629.9"
   id="path257" />
	</g>
	<g
   class="st3"
   id="g263">
		<path
   class="st4"
   d="M-1651.6,1629.9"
   id="path261" />
	</g>
	<g
   class="st3"
   id="g267">
		<path
   class="st4"
   d="M-1651.6,1629.9"
   id="path265" />
	</g>
	<g
   class="st3"
   id="g271">
		<path
   class="st4"
   d="M-1651.6,1629.9"
   id="path269" />
	</g>
	<g
   class="st3"
   id="g275">
		<path
   class="st4"
   d="M-1651.6,1629.9"
   id="path273" />
	</g>
	<g
   class="st3"
   id="g279">
		<path
   class="st4"
   d="M-1651.6,1629.9"
   id="path277" />
	</g>
	<g
   class="st3"
   id="g283">
		<path
   class="st4"
   d="M-1651.6,1629.9"
   id="path281" />
	</g>
	<g
   class="st3"
   id="g287">
		<path
   class="st4"
   d="M-1651.6,1629.9"
   id="path285" />
	</g>
	<g
   class="st3"
   id="g291">
		<path
   class="st4"
   d="M-1651.6,1629.9"
   id="path289" />
	</g>
	<g
   class="st3"
   id="g295">
		<path
   class="st4"
   d="M-1651.6,1629.9"
   id="path293" />
	</g>
	<g
   class="st3"
   id="g299">
		<path
   class="st4"
   d="M-1651.6,1629.9"
   id="path297" />
	</g>
	<g
   class="st3"
   id="g303">
		<path
   class="st4"
   d="M-1651.6,1629.9"
   id="path301" />
	</g>
	<g
   class="st3"
   id="g307">
		<path
   class="st4"
   d="M-1651.6,1629.9"
   id="path305" />
	</g>
	<g
   class="st3"
   id="g311">
		<path
   class="st4"
   d="M-1651.6,1629.9"
   id="path309" />
	</g>
	<g
   class="st3"
   id="g315">
		<path
   class="st4"
   d="M-1651.6,1629.9"
   id="path313" />
	</g>
	<g
   class="st3"
   id="g319">
		<path
   class="st4"
   d="M-1651.6,1629.9"
   id="path317" />
	</g>
	<g
   class="st3"
   id="g323">
		<path
   class="st4"
   d="M-1651.6,1629.9"
   id="path321" />
	</g>
	<g
   class="st3"
   id="g327">
		<path
   class="st4"
   d="M-1651.6,1629.9"
   id="path325" />
	</g>
	<g
   class="st3"
   id="g331">
		<path
   class="st4"
   d="M-1651.6,1629.9"
   id="path329" />
	</g>
	<g
   class="st3"
   id="g335">
		<path
   class="st4"
   d="M-1651.6,1629.9"
   id="path333" />
	</g>
	<g
   class="st3"
   id="g339">
		<path
   class="st4"
   d="M-1651.6,1629.9"
   id="path337" />
	</g>
	<g
   class="st3"
   id="g343">
		<path
   class="st4"
   d="M-1651.6,1629.9"
   id="path341" />
	</g>
	<g
   class="st3"
   id="g347">
		<path
   class="st4"
   d="M-1651.6,1629.9"
   id="path345" />
	</g>
	<g
   class="st3"
   id="g351">
		<path
   class="st4"
   d="M-1651.6,1629.9"
   id="path349" />
	</g>
	<g
   class="st3"
   id="g355">
		<path
   class="st4"
   d="M-1651.6,1629.9"
   id="path353" />
	</g>
	<g
   class="st3"
   id="g359">
		<path
   class="st4"
   d="M-1651.6,1629.9"
   id="path357" />
	</g>
	<g
   class="st3"
   id="g363">
		<path
   class="st4"
   d="M-1651.6,1629.9"
   id="path361" />
	</g>
	<g
   class="st3"
   id="g367">
		<path
   class="st4"
   d="M-1651.6,1629.9"
   id="path365" />
	</g>
	<g
   class="st3"
   id="g371">
		<path
   class="st4"
   d="M-1651.6,1629.9"
   id="path369" />
	</g>
	<g
   class="st3"
   id="g375">
		<path
   class="st4"
   d="M-1651.6,1629.9"
   id="path373" />
	</g>
	<g
   class="st3"
   id="g379">
		<path
   class="st4"
   d="M-1651.6,1629.9"
   id="path377" />
	</g>
	<g
   class="st3"
   id="g383">
		<path
   class="st4"
   d="M-1651.6,1629.9"
   id="path381" />
	</g>
	<g
   class="st3"
   id="g387">
		<path
   class="st4"
   d="M-1651.6,1629.9"
   id="path385" />
	</g>
	<g
   class="st3"
   id="g391">
		<path
   class="st4"
   d="M-1651.6,1629.9"
   id="path389" />
	</g>
	<g
   class="st3"
   id="g395">
		<path
   class="st4"
   d="M-1651.6,1629.9"
   id="path393" />
	</g>
	<g
   class="st3"
   id="g399">
		<path
   class="st4"
   d="M-1651.6,1629.9"
   id="path397" />
	</g>
	<g
   class="st3"
   id="g403">
		<path
   class="st4"
   d="M-1651.6,1629.9"
   id="path401" />
	</g>
	<g
   class="st3"
   id="g407">
		<path
   class="st4"
   d="M-1651.6,1629.9"
   id="path405" />
	</g>
	<g
   class="st3"
   id="g411">
		<path
   class="st4"
   d="M-1651.6,1629.9"
   id="path409" />
	</g>
	<g
   class="st3"
   id="g415">
		<path
   class="st4"
   d="M-1651.6,1629.9"
   id="path413" />
	</g>
	<g
   class="st3"
   id="g419">
		<path
   class="st4"
   d="M-1651.6,1629.9"
   id="path417" />
	</g>
	<g
   class="st3"
   id="g423">
		<path
   class="st4"
   d="M-1651.6,1629.9"
   id="path421" />
	</g>
	<g
   class="st3"
   id="g427">
		<path
   class="st4"
   d="M-1651.6,1629.9"
   id="path425" />
	</g>
	<g
   class="st3"
   id="g431">
		<path
   class="st4"
   d="M-1651.6,1629.9"
   id="path429" />
	</g>
	<g
   class="st3"
   id="g435">
		<path
   class="st4"
   d="M-1651.6,1629.9"
   id="path433" />
	</g>
	<g
   class="st3"
   id="g439">
		<path
   class="st4"
   d="M-1651.6,1629.9"
   id="path437" />
	</g>
	<g
   class="st3"
   id="g443">
		<path
   class="st4"
   d="M-1651.6,1629.9"
   id="path441" />
	</g>
	<g
   class="st3"
   id="g447">
		<path
   class="st4"
   d="M-1651.6,1629.9"
   id="path445" />
	</g>
	<g
   class="st3"
   id="g451">
		<path
   class="st4"
   d="M-1651.6,1629.9"
   id="path449" />
	</g>
	<g
   class="st3"
   id="g455">
		<path
   class="st4"
   d="M-1651.6,1629.9"
   id="path453" />
	</g>
	<g
   class="st3"
   id="g459">
		<path
   class="st4"
   d="M-1651.6,1629.9"
   id="path457" />
	</g>
	<g
   class="st3"
   id="g463">
		<path
   class="st4"
   d="M-1651.6,1629.9"
   id="path461" />
	</g>
	<g
   class="st3"
   id="g467">
		<path
   class="st4"
   d="M-1651.6,1629.9"
   id="path465" />
	</g>
	<g
   class="st3"
   id="g471">
		<path
   class="st4"
   d="M-1651.6,1629.9"
   id="path469" />
	</g>
	<g
   class="st3"
   id="g475">
		<path
   class="st4"
   d="M-1651.6,1629.9"
   id="path473" />
	</g>
	<g
   class="st3"
   id="g479">
		<path
   class="st4"
   d="M-1651.6,1629.9"
   id="path477" />
	</g>
	<g
   class="st3"
   id="g483">
		<path
   class="st4"
   d="M-1651.6,1629.9"
   id="path481" />
	</g>
	<g
   class="st3"
   id="g487">
		<path
   class="st4"
   d="M-1651.6,1629.9"
   id="path485" />
	</g>
	<g
   class="st3"
   id="g491">
		<path
   class="st4"
   d="M-1651.6,1629.9"
   id="path489" />
	</g>
	<g
   class="st3"
   id="g495">
		<path
   class="st4"
   d="M-1651.6,1629.9"
   id="path493" />
	</g>
	<g
   class="st3"
   id="g499">
		<path
   class="st4"
   d="M-1651.6,1629.9"
   id="path497" />
	</g>
	<g
   class="st3"
   id="g503">
		<path
   class="st4"
   d="M-1651.6,1629.9"
   id="path501" />
	</g>
	<g
   class="st3"
   id="g507">
		<path
   class="st4"
   d="M-1651.6,1629.9"
   id="path505" />
	</g>
	<g
   id="g531">
		<path
   class="st2"
   d="M245.8,680.2h3.5l15.2,36.1h-3.8l-3.9-9.6h-19.1l-4.1,9.6H230L245.8,680.2z M247.4,683.8l-8.4,19.8h16.6    L247.4,683.8z"
   id="path509" />
		<path
   class="st2"
   d="M290,709.6c1.8,3,4.7,4.5,8.3,4.5c4.5,0,8.1-2.8,8.1-7.1c0-10.1-18.6-4.2-18.6-17.9c0-6.4,5.5-9.9,11.6-9.9    c3.9,0,7.4,1.3,9.8,4.5l-2.9,2.1c-1.7-2.3-3.9-3.6-7-3.6c-4.3,0-8.1,2.2-8.1,6.8c0,10.9,18.6,4.3,18.6,17.9    c0,6.5-5.4,10.1-11.2,10.1c-4.7,0-8.9-1.5-11.7-5.5L290,709.6z"
   id="path511" />
		<path
   class="st2"
   d="M337.7,709.6c1.8,3,4.7,4.5,8.3,4.5c4.5,0,8.1-2.8,8.1-7.1c0-10.1-18.6-4.2-18.6-17.9c0-6.4,5.5-9.9,11.6-9.9    c3.9,0,7.4,1.3,9.8,4.5l-2.9,2.1c-1.7-2.3-3.9-3.6-7-3.6c-4.3,0-8.1,2.2-8.1,6.8c0,10.9,18.6,4.3,18.6,17.9    c0,6.5-5.4,10.1-11.2,10.1c-4.7,0-8.9-1.5-11.7-5.5L337.7,709.6z"
   id="path513" />
		<path
   class="st2"
   d="M400.8,679.3c11,0,18.7,8,18.7,19s-7.6,19-18.7,19s-18.7-8-18.7-19S389.8,679.3,400.8,679.3z M400.8,714.1    c9.4,0,15.3-6.9,15.3-15.9s-5.9-15.9-15.3-15.9c-9.4,0-15.3,6.9-15.3,15.9S391.3,714.1,400.8,714.1z"
   id="path515" />
		<path
   class="st2"
   d="M476.1,710.6c-3.4,4.7-8.1,6.6-13.4,6.6c-11,0-18.7-8-18.7-19s7.6-19,18.7-19c4.9,0,9.3,1.6,12.4,5.7    l-2.8,2.3c-2.2-3.4-6.1-4.9-9.7-4.9c-9.4,0-15.3,6.9-15.3,15.9s5.9,15.9,15.3,15.9c3.6,0,8.1-1.7,10.7-5.6L476.1,710.6z"
   id="path517" />
		<path
   class="st2"
   d="M501.6,680.2h3.4v36.1h-3.4V680.2z"
   id="path519" />
		<path
   class="st2"
   d="M545.3,680.2h3.5l15.2,36.1h-3.8l-3.9-9.6h-19.1l-4.1,9.6h-3.5L545.3,680.2z M546.9,683.8l-8.4,19.8h16.6    L546.9,683.8z"
   id="path521" />
		<path
   class="st2"
   d="M593.1,683.2h-12.3v-3.1h28v3.1h-12.3v33h-3.4V683.2z"
   id="path523" />
		<path
   class="st2"
   d="M633.7,680.2h3.4v36.1h-3.4V680.2z"
   id="path525" />
		<path
   class="st2"
   d="M682.7,679.3c11,0,18.7,8,18.7,19s-7.6,19-18.7,19s-18.7-8-18.7-19S671.7,679.3,682.7,679.3z M682.7,714.1    c9.4,0,15.3-6.9,15.3-15.9s-5.9-15.9-15.3-15.9c-9.4,0-15.3,6.9-15.3,15.9S673.2,714.1,682.7,714.1z"
   id="path527" />
		<path
   class="st2"
   d="M728.3,680.2h4.3l22,31.6h0.1v-31.6h3.4v36.1h-4.3l-22-31.6h-0.1v31.6h-3.4V680.2z"
   id="path529" />
	</g>
</g>
</svg>
