<?xml version="1.0" standalone="no"?>
<!DOCTYPE svg PUBLIC "-//W3C//DTD SVG 20010904//EN"
 "http://www.w3.org/TR/2001/REC-SVG-20010904/DTD/svg10.dtd">
<svg version="1.0" xmlns="http://www.w3.org/2000/svg"
 width="1200.000000pt" height="1200.000000pt" viewBox="0 0 1200.000000 1200.000000"
 preserveAspectRatio="xMidYMid meet">
<metadata>
Created by potrace 1.14, written by Peter Selinger 2001-2017
</metadata>
<g transform="translate(0.000000,1200.000000) scale(0.100000,-0.100000)"
fill="#000000" stroke="none">
<path d="M5244 11160 c-109 -23 -207 -103 -258 -210 -28 -58 -31 -75 -31 -155
0 -81 3 -97 32 -155 142 -289 535 -285 671 8 22 48 27 71 27 147 0 80 -3 97
-31 155 -75 156 -248 245 -410 210z"/>
<path d="M6795 10983 c-100 -36 -171 -102 -218 -201 -28 -59 -32 -77 -32 -152
1 -72 5 -95 29 -147 31 -69 106 -147 173 -181 179 -92 406 -15 500 168 25 50
28 65 28 160 0 94 -3 111 -27 160 -35 72 -103 139 -175 175 -76 37 -201 45
-278 18z"/>
<path d="M3714 10760 c-113 -16 -226 -100 -279 -207 -40 -81 -47 -203 -15
-286 69 -184 267 -285 450 -231 102 30 185 100 235 200 26 52 30 68 30 154 0
83 -4 102 -28 155 -71 152 -228 238 -393 215z"/>
<path d="M8283 10280 c-116 -24 -220 -107 -269 -213 -25 -54 -29 -74 -29 -152
0 -82 3 -97 33 -157 41 -84 120 -158 200 -188 83 -32 215 -26 294 13 75 37
134 98 172 177 28 59 31 74 31 160 0 84 -3 102 -28 152 -36 73 -128 160 -199
186 -66 25 -149 33 -205 22z"/>
<path d="M9530 9971 c-80 -26 -157 -100 -178 -169 -19 -63 -15 -150 9 -200 12
-24 82 -108 156 -186 74 -77 138 -148 143 -157 7 -13 -20 -39 -138 -132 -81
-63 -244 -192 -362 -287 -118 -94 -220 -174 -227 -177 -6 -2 -58 43 -114 102
-108 111 -132 129 -190 140 -77 14 -174 -39 -204 -113 -19 -44 -19 -113 -1
-157 8 -19 53 -74 99 -122 567 -591 910 -1355 978 -2181 14 -176 6 -569 -15
-731 -109 -820 -476 -1552 -1062 -2123 -483 -469 -1074 -787 -1734 -932 -415
-91 -842 -106 -1265 -45 -534 76 -1032 266 -1475 562 -176 118 -320 234 -493
396 -120 114 -181 134 -272 92 -99 -46 -141 -158 -96 -256 19 -42 159 -180
316 -310 44 -37 79 -71 77 -76 -2 -9 -87 -129 -187 -264 -28 -38 -120 -164
-204 -280 -84 -115 -158 -211 -165 -213 -15 -3 -241 187 -398 336 -94 88 -127
113 -169 127 -173 58 -348 -68 -349 -250 0 -94 29 -142 156 -265 558 -538
1287 -981 2014 -1223 458 -152 887 -237 1390 -277 146 -11 689 -5 840 10 1161
112 2192 547 3070 1294 133 113 480 459 591 591 141 165 274 341 383 505 100
151 206 318 206 325 0 2 14 28 31 57 46 78 189 365 248 500 224 508 369 1083
427 1683 19 203 22 715 5 910 -52 582 -185 1144 -387 1632 -144 350 -315 669
-521 976 -229 341 -632 810 -745 868 -46 23 -146 34 -188 20z m452 -1123 c109
-157 238 -370 332 -553 89 -170 247 -540 235 -548 -12 -7 -901 -298 -903 -296
-2 2 -20 47 -41 99 -83 209 -244 509 -379 708 -31 45 -56 86 -56 90 1 4 76 66
168 139 92 73 257 204 367 292 110 88 203 160 206 160 3 1 35 -41 71 -91z
m701 -1490 c2 -13 23 -102 45 -198 61 -261 122 -697 122 -872 l0 -48 -477 2
-478 3 -12 144 c-6 79 -21 205 -33 280 -21 130 -75 384 -85 401 -4 6 866 305
901 309 7 0 14 -9 17 -21z m167 -1556 c0 -138 -49 -526 -95 -752 -39 -192
-118 -490 -130 -490 -2 0 -75 26 -162 59 -87 32 -286 105 -443 161 -157 57
-286 104 -288 105 -1 1 11 51 27 111 61 227 114 532 127 730 3 55 7 105 10
112 3 9 107 12 479 12 l475 0 0 -48z m-860 -1423 c212 -77 411 -150 443 -162
31 -11 57 -24 57 -29 0 -15 -104 -247 -170 -378 -38 -74 -113 -208 -167 -297
-96 -159 -307 -466 -343 -498 -18 -17 -45 2 -300 203 -19 15 -100 78 -180 140
-80 62 -177 138 -217 168 l-72 56 73 97 c85 111 181 257 256 386 58 100 220
427 220 444 0 6 3 11 8 11 4 0 180 -63 392 -141z m-1050 -1209 c74 -58 147
-114 161 -125 15 -11 116 -90 225 -175 108 -85 202 -158 208 -162 25 -17 -380
-396 -614 -575 -170 -129 -445 -312 -454 -302 -8 9 -427 851 -424 853 2 2 58
40 126 86 167 113 360 269 500 405 64 62 122 110 127 107 6 -3 71 -54 145
-112z m-5068 -518 c113 -69 444 -242 463 -242 3 0 24 -9 48 -20 65 -30 182
-74 290 -110 96 -31 98 -33 92 -59 -4 -14 -35 -145 -70 -291 -126 -530 -147
-610 -156 -610 -6 0 -67 18 -137 41 -285 92 -677 268 -937 421 -142 84 -215
130 -215 136 0 2 69 99 153 216 84 116 209 288 278 383 68 95 125 172 126 173
2 0 31 -17 65 -38z m4044 -587 c207 -410 211 -420 191 -435 -31 -22 -208 -102
-365 -164 -301 -119 -596 -204 -905 -261 -167 -30 -187 -31 -187 -7 0 9 -20
215 -45 457 -25 241 -45 447 -45 456 0 12 12 18 43 23 94 15 361 78 483 115
193 58 549 199 589 233 5 5 14 7 20 5 5 -1 105 -192 221 -422z m-2634 66 c189
-33 429 -51 665 -51 l223 0 4 -22 c3 -13 23 -210 46 -438 22 -228 43 -431 46
-451 l5 -36 -107 -6 c-344 -22 -865 17 -1208 89 -37 8 -41 -19 83 492 56 228
101 420 101 428 0 18 6 18 142 -5z"/>
<path d="M2362 9824 c-75 -20 -109 -40 -167 -98 -73 -73 -99 -143 -99 -261 0
-75 5 -99 26 -145 37 -81 98 -144 176 -182 61 -30 74 -33 162 -33 88 0 101 3
162 33 116 57 194 171 205 301 21 256 -215 453 -465 385z"/>
<path d="M1469 8505 c-283 -76 -379 -415 -175 -619 67 -67 143 -99 245 -104
101 -5 169 16 245 74 161 123 189 372 59 524 -41 48 -119 101 -175 119 -54 18
-146 21 -199 6z"/>
<path d="M1070 6947 c-104 -37 -183 -106 -231 -202 -25 -52 -29 -72 -30 -145
-1 -123 39 -218 121 -288 220 -189 555 -71 610 216 31 156 -59 327 -210 399
-44 21 -72 27 -140 29 -49 2 -100 -2 -120 -9z"/>
<path d="M1248 5351 c-183 -59 -291 -255 -244 -442 46 -179 197 -290 376 -277
124 9 230 77 288 185 112 211 13 465 -207 533 -77 24 -138 25 -213 1z"/>
<path d="M2033 3939 c-114 -22 -220 -106 -269 -212 -25 -54 -29 -74 -29 -152
0 -80 3 -97 31 -155 37 -78 98 -140 173 -178 50 -24 67 -27 161 -27 96 0 110
3 162 29 76 38 132 96 171 175 29 59 32 74 32 156 0 82 -3 97 -32 155 -55 112
-136 177 -255 205 -69 16 -83 17 -145 4z"/>
</g>
</svg>
